<svg width="62" height="62" viewBox="0 0 62 62" fill="none" xmlns="http://www.w3.org/2000/svg">
<rect width="62" height="62" rx="10" fill="#47365E"/>
<path d="M14.344 27.28C13.168 27.28 12.1413 27.14 11.264 26.86C10.3867 26.5613 9.64933 26.1693 9.052 25.684C8.45467 25.1987 7.99733 24.6667 7.68 24.088C7.38133 23.5093 7.22267 22.912 7.204 22.296C7.204 22.128 7.26 21.9973 7.372 21.904C7.484 21.8107 7.624 21.764 7.792 21.764H9.164C9.332 21.764 9.48133 21.8013 9.612 21.876C9.74267 21.9507 9.85467 22.1093 9.948 22.352C10.1347 23.024 10.452 23.5467 10.9 23.92C11.3667 24.2933 11.8987 24.5547 12.496 24.704C13.112 24.8347 13.728 24.9 14.344 24.9C15.632 24.9 16.6773 24.592 17.48 23.976C18.2827 23.36 18.684 22.4547 18.684 21.26C18.684 20.0467 18.32 19.1787 17.592 18.656C16.864 18.1333 15.856 17.872 14.568 17.872H11.908C11.7213 17.872 11.5627 17.816 11.432 17.704C11.32 17.592 11.264 17.4333 11.264 17.228V16.472C11.264 16.304 11.292 16.164 11.348 16.052C11.4227 15.9213 11.4973 15.8093 11.572 15.716L17.004 9.78H8.744C8.55733 9.78 8.39867 9.724 8.268 9.612C8.156 9.5 8.1 9.34133 8.1 9.136V8.072C8.1 7.86667 8.156 7.708 8.268 7.596C8.39867 7.46533 8.55733 7.4 8.744 7.4H19.916C20.1213 7.4 20.28 7.46533 20.392 7.596C20.5227 7.708 20.588 7.86667 20.588 8.072V9.08C20.588 9.21067 20.5507 9.332 20.476 9.444C20.42 9.53733 20.3547 9.63067 20.28 9.724L14.876 15.744L15.324 15.772C16.556 15.8093 17.6293 16.0333 18.544 16.444C19.4773 16.8547 20.196 17.4707 20.7 18.292C21.2227 19.0947 21.484 20.112 21.484 21.344C21.484 22.5947 21.176 23.668 20.56 24.564C19.944 25.4413 19.0947 26.1133 18.012 26.58C16.9293 27.0467 15.7067 27.28 14.344 27.28ZM25.8964 27C25.6911 27 25.5324 26.944 25.4204 26.832C25.3084 26.7013 25.2524 26.5427 25.2524 26.356V8.072C25.2524 7.86667 25.3084 7.708 25.4204 7.596C25.5324 7.46533 25.6911 7.4 25.8964 7.4H32.2524C34.1751 7.4 35.7244 7.68933 36.9004 8.268C38.0764 8.84667 38.9351 9.70533 39.4764 10.844C40.0177 11.964 40.2977 13.3453 40.3164 14.988C40.3351 15.828 40.3444 16.5653 40.3444 17.2C40.3444 17.8347 40.3351 18.5627 40.3164 19.384C40.2791 21.1013 39.9897 22.5293 39.4484 23.668C38.9257 24.788 38.0857 25.628 36.9284 26.188C35.7897 26.7293 34.2777 27 32.3924 27H25.8964ZM27.9964 24.62H32.2524C33.5404 24.62 34.5671 24.4427 35.3324 24.088C36.0977 23.7333 36.6484 23.164 36.9844 22.38C37.3391 21.596 37.5257 20.56 37.5444 19.272C37.5817 18.712 37.6004 18.2267 37.6004 17.816C37.6004 17.3867 37.6004 16.9667 37.6004 16.556C37.6004 16.1267 37.5817 15.6413 37.5444 15.1C37.5071 13.2893 37.0777 11.9547 36.2564 11.096C35.4351 10.2187 34.0537 9.78 32.1124 9.78H27.9964V24.62ZM44.3331 27C44.1278 27 43.9598 26.9347 43.8291 26.804C43.6984 26.6733 43.6331 26.5053 43.6331 26.3V22.744C43.6331 22.5573 43.6984 22.3987 43.8291 22.268C43.9598 22.1187 44.1278 22.044 44.3331 22.044H47.8611C48.0664 22.044 48.2344 22.1187 48.3651 22.268C48.5144 22.3987 48.5891 22.5573 48.5891 22.744V26.3C48.5891 26.5053 48.5144 26.6733 48.3651 26.804C48.2344 26.9347 48.0664 27 47.8611 27H44.3331Z" fill="white"/>
<path d="M15.93 54.3C13.93 54.3 12.27 54.02 10.95 53.46C9.63 52.88 8.63 52.13 7.95 51.21C7.27 50.29 6.91 49.31 6.87 48.27C6.87 48.11 6.93 47.97 7.05 47.85C7.19 47.71 7.35 47.64 7.53 47.64H11.31C11.59 47.64 11.8 47.69 11.94 47.79C12.1 47.89 12.24 48.02 12.36 48.18C12.52 48.48 12.74 48.77 13.02 49.05C13.32 49.33 13.7 49.56 14.16 49.74C14.64 49.9 15.23 49.98 15.93 49.98C17.09 49.98 17.96 49.8 18.54 49.44C19.14 49.08 19.44 48.59 19.44 47.97C19.44 47.53 19.28 47.17 18.96 46.89C18.64 46.59 18.12 46.33 17.4 46.11C16.7 45.87 15.76 45.63 14.58 45.39C13.06 45.07 11.76 44.66 10.68 44.16C9.62 43.64 8.81 42.97 8.25 42.15C7.69 41.31 7.41 40.27 7.41 39.03C7.41 37.81 7.75 36.72 8.43 35.76C9.13 34.8 10.1 34.05 11.34 33.51C12.58 32.97 14.05 32.7 15.75 32.7C17.13 32.7 18.34 32.88 19.38 33.24C20.44 33.6 21.33 34.08 22.05 34.68C22.77 35.28 23.31 35.92 23.67 36.6C24.05 37.26 24.25 37.91 24.27 38.55C24.27 38.71 24.21 38.86 24.09 39C23.97 39.12 23.82 39.18 23.64 39.18H19.68C19.46 39.18 19.27 39.14 19.11 39.06C18.95 38.98 18.81 38.85 18.69 38.67C18.57 38.23 18.25 37.85 17.73 37.53C17.23 37.19 16.57 37.02 15.75 37.02C14.87 37.02 14.18 37.18 13.68 37.5C13.2 37.8 12.96 38.27 12.96 38.91C12.96 39.31 13.09 39.66 13.35 39.96C13.63 40.26 14.08 40.52 14.7 40.74C15.34 40.96 16.21 41.19 17.31 41.43C19.13 41.77 20.6 42.2 21.72 42.72C22.84 43.22 23.66 43.88 24.18 44.7C24.7 45.5 24.96 46.51 24.96 47.73C24.96 49.09 24.57 50.27 23.79 51.27C23.03 52.25 21.97 53 20.61 53.52C19.25 54.04 17.69 54.3 15.93 54.3ZM35.6133 54C34.3333 54 33.2233 53.8 32.2833 53.4C31.3633 52.98 30.6533 52.34 30.1533 51.48C29.6533 50.6 29.4033 49.47 29.4033 48.09V42.33H27.0633C26.8433 42.33 26.6533 42.26 26.4933 42.12C26.3533 41.98 26.2833 41.8 26.2833 41.58V39.15C26.2833 38.93 26.3533 38.75 26.4933 38.61C26.6533 38.47 26.8433 38.4 27.0633 38.4H29.4033V33.45C29.4033 33.23 29.4733 33.05 29.6133 32.91C29.7733 32.77 29.9533 32.7 30.1533 32.7H33.6333C33.8533 32.7 34.0333 32.77 34.1733 32.91C34.3133 33.05 34.3833 33.23 34.3833 33.45V38.4H38.1333C38.3533 38.4 38.5333 38.47 38.6733 38.61C38.8133 38.75 38.8833 38.93 38.8833 39.15V41.58C38.8833 41.8 38.8133 41.98 38.6733 42.12C38.5333 42.26 38.3533 42.33 38.1333 42.33H34.3833V47.67C34.3833 48.35 34.5133 48.89 34.7733 49.29C35.0333 49.69 35.4733 49.89 36.0933 49.89H38.4033C38.6233 49.89 38.8033 49.96 38.9433 50.1C39.0833 50.24 39.1533 50.42 39.1533 50.64V53.25C39.1533 53.47 39.0833 53.65 38.9433 53.79C38.8033 53.93 38.6233 54 38.4033 54H35.6133Z" fill="white"/>
</svg>
